# xmcd CD database file
#
# Track frame offsets:
#	150
#	19274
#	35763
#	47821
#	64086
#	79370
#	94455
#	108934
#	128636
#	144468
#
# Disc length: 2112 seconds
#
# Revision: 0
# Processed by: cddbd v1.5.2PL0 Copyright (c) Steve Scherf et al.
# Submitted via: CDex 1.51
#
DISCID=8c083e0a
DTITLE=Dennis Marsh - Land Of The Long White Cloud
DYEAR=2008
DGENRE=Country
TTITLE0=Dennis Marsh - Land Of The Long White Cloud
TTITLE1=Dennis Marsh - Too Many Memories
TTITLE2=Dennis Marsh - I Taught Her Everything She Knows
TTITLE3=Dennis Marsh - Charlie's Shoes
TTITLE4=dennis marsh - Lay Your Body Down
TTITLE5=Dennis Marsh - I Can't Help It If I'm Still In Love With You
TTITLE6=Dennis Marsh - Cry Myself To Sleep
TTITLE7=Dennis Marsh - Shame On Me
TTITLE8=Dennis Marsh - One Prayer Away
TTITLE9=Dennis Marsh - Somewhere In New Zealand Tonight
EXTD=YEAR: 2008
EXTT0=
EXTT1=
EXTT2=
EXTT3=
EXTT4=
EXTT5=
EXTT6=
EXTT7=
EXTT8=
EXTT9=
PLAYORDER=
